<svg id="CLOUD" xmlns="http://www.w3.org/2000/svg" xmlns:xlink="http://www.w3.org/1999/xlink" width="73.217" height="58" viewBox="0 0 73.217 58">
  <defs>
    <clipPath id="clip-path">
      <path id="Path_5252" data-name="Path 5252" d="M34.749,90.816v0l-4.838,2.795a15.668,15.668,0,0,0-2.6-1.9c-2.755-1.592-5.248-1.727-7.04-.658v0l-12,6.975v0l9.62,3.072c1.259,5.354,5,10.872,9.425,13.427L61.923,134.5l2.589,12.45,11.848-6.877.008,0,.039-.021,0,0c1.459-.864,2.36-2.686,2.36-5.273,0-5.22-3.665-11.567-8.185-14.177a7.74,7.74,0,0,0-3.3-1.1c0-.086.012-.165.012-.253a14.139,14.139,0,0,0-6.4-11.083,5.888,5.888,0,0,0-2.726-.863c-2.5-6.515-7.217-12.666-12.633-15.793a13.167,13.167,0,0,0-6.484-1.983h-.129a7.352,7.352,0,0,0-4.173,1.3" transform="translate(-8.268 -89.516)" fill="none"/>
    </clipPath>
    <linearGradient id="linear-gradient" x1="-0.039" y1="1.652" x2="-0.034" y2="1.652" gradientUnits="objectBoundingBox">
      <stop offset="0" stop-color="#5761d7"/>
      <stop offset="0.178" stop-color="#5b65d8"/>
      <stop offset="0.388" stop-color="#6a72de"/>
      <stop offset="0.614" stop-color="#8288e8"/>
      <stop offset="0.85" stop-color="#a3a7f5"/>
      <stop offset="1" stop-color="#bcbeff"/>
    </linearGradient>
    <clipPath id="clip-path-2">
      <path id="Path_5253" data-name="Path 5253" d="M14.21,116.315l0,0a17.508,17.508,0,0,0-4.328-3.65c-5.456-3.151-9.879-.6-9.879,5.7s4.423,13.962,9.879,17.112l43.264,24.978c4.52,2.61,8.185.494,8.185-4.725s-3.665-11.567-8.185-14.176a7.752,7.752,0,0,0-3.292-1.1c0-.086.012-.165.012-.254a14.149,14.149,0,0,0-6.4-11.084,5.9,5.9,0,0,0-2.725-.862c-2.5-6.516-7.218-12.667-12.634-15.794a13.163,13.163,0,0,0-6.486-1.983c-3.53,0-6.241,2.085-7.408,5.838" transform="translate(0 -110.477)" fill="none"/>
    </clipPath>
    <linearGradient id="linear-gradient-2" y1="1.661" x2="0.005" y2="1.661" gradientUnits="objectBoundingBox">
      <stop offset="0" stop-color="#c0bff6"/>
      <stop offset="0.294" stop-color="#c4c3f6"/>
      <stop offset="0.641" stop-color="#d2d2f9"/>
      <stop offset="1" stop-color="#e9e9fd"/>
    </linearGradient>
  </defs>
  <g id="Group_4016" data-name="Group 4016">
    <g id="Group_4013" data-name="Group 4013" transform="translate(2.722)">
      <g id="Group_4012" data-name="Group 4012" clip-path="url(#clip-path)">
        <rect id="Rectangle_1337" data-name="Rectangle 1337" width="70.494" height="57.435" transform="translate(0 0)" fill="url(#linear-gradient)"/>
      </g>
    </g>
    <g id="Group_4015" data-name="Group 4015" transform="translate(0 6.901)">
      <g id="Group_4014" data-name="Group 4014" transform="translate(0 0)" clip-path="url(#clip-path-2)">
        <rect id="Rectangle_1338" data-name="Rectangle 1338" width="61.329" height="53.555" transform="translate(0 -0.964)" fill="url(#linear-gradient-2)"/>
      </g>
    </g>
  </g>
</svg>
